<svg xmlns="http://www.w3.org/2000/svg" width="800" height="560" viewBox="0 0 800 560">
  <rect width="800" height="560" fill="#f4f6fb"/>
  <rect x="0" y="0" width="800" height="72" fill="#2d2d30"/>
  <text x="28" y="46" font-family="Segoe UI, Arial, sans-serif" font-size="26" fill="#ffffff" font-weight="600">Acme 设计稿 v3</text>
  <rect x="40" y="120" width="320" height="180" rx="10" fill="#ffffff" stroke="#d0d4dc" stroke-width="2"/>
  <text x="64" y="160" font-family="Segoe UI, Arial, sans-serif" font-size="18" fill="#333">卡片标题</text>
  <rect x="64" y="180" width="200" height="12" rx="6" fill="#e2e6ee"/>
  <rect x="64" y="204" width="260" height="12" rx="6" fill="#e2e6ee"/>
  <rect x="64" y="240" width="120" height="36" rx="18" fill="#4a9eff"/>
  <text x="92" y="263" font-family="Segoe UI, Arial, sans-serif" font-size="15" fill="#ffffff">主按钮</text>
  <circle cx="560" cy="200" r="70" fill="#ffd24a"/>
  <rect x="470" y="320" width="280" height="160" rx="10" fill="#ffffff" stroke="#d0d4dc" stroke-width="2"/>
  <text x="494" y="356" font-family="Segoe UI, Arial, sans-serif" font-size="16" fill="#666">侧边信息区</text>
  <rect x="494" y="376" width="232" height="10" rx="5" fill="#e2e6ee"/>
  <rect x="494" y="396" width="200" height="10" rx="5" fill="#e2e6ee"/>
  <rect x="494" y="440" width="100" height="28" rx="14" fill="#639922"/>
  <text x="514" y="459" font-family="Segoe UI, Arial, sans-serif" font-size="13" fill="#ffffff">确认</text>
</svg>
